<?xml version="1.0" standalone="no"?>
<!DOCTYPE svg PUBLIC "-//W3C//DTD SVG 20010904//EN"
 "http://www.w3.org/TR/2001/REC-SVG-20010904/DTD/svg10.dtd">
<svg version="1.0" xmlns="http://www.w3.org/2000/svg"
 width="131.000000pt" height="131.000000pt" viewBox="0 0 131.000000 131.000000"
 preserveAspectRatio="xMidYMid meet">
<metadata>
Created by potrace 1.11, written by Peter Selinger 2001-2013
</metadata>
<g transform="translate(0.000000,131.000000) scale(0.100000,-0.100000)"
fill="#000000" stroke="none">
<path d="M445 1103 c-53 -12 -88 -27 -110 -49 -14 -14 -25 -28 -26 -32 0 -4
-2 -16 -4 -26 -6 -31 22 -85 62 -122 52 -47 183 -111 270 -132 40 -9 73 -20
73 -24 0 -4 -12 -11 -27 -14 -50 -12 -186 -85 -254 -135 -171 -126 -252 -273
-199 -357 28 -45 79 -66 165 -65 254 2 615 238 615 403 l0 34 -17 -24 c-28
-39 -63 -67 -138 -109 -186 -104 -385 -105 -385 -2 0 73 123 183 263 236 l62
23 71 -18 c102 -26 156 -53 177 -89 19 -32 21 -86 4 -108 -6 -8 -6 -13 1 -13
15 0 49 50 57 83 26 101 -48 165 -266 235 -53 17 -122 42 -152 56 -99 44 -119
117 -40 149 58 23 204 10 308 -29 18 -7 18 -5 -4 19 -26 29 -131 71 -236 94
-69 15 -230 25 -270 16z"/>
</g>
</svg>
