<?xml version="1.0" encoding="UTF-8"?>
<svg width="85px" height="85px" viewBox="0 0 85 85" version="1.1" xmlns="http://www.w3.org/2000/svg" xmlns:xlink="http://www.w3.org/1999/xlink">
    <!-- Generator: Sketch 49.3 (51167) - http://www.bohemiancoding.com/sketch -->
    <title>system (1)</title>
    <desc>Created with Sketch.</desc>
    <defs>
        <linearGradient x1="49.9999792%" y1="101.175%" x2="49.9999792%" y2="-55.1625%" id="linearGradient-1">
            <stop stop-color="#006DF0" offset="0%"></stop>
            <stop stop-color="#00E7F0" offset="100%"></stop>
        </linearGradient>
        <linearGradient x1="49.999975%" y1="162.594923%" x2="49.999975%" y2="-108.765459%" id="linearGradient-2">
            <stop stop-color="#006DF0" offset="0%"></stop>
            <stop stop-color="#00E7F0" offset="100%"></stop>
        </linearGradient>
        <linearGradient x1="49.9999645%" y1="318.263148%" x2="49.9999645%" y2="-10.8684162%" id="linearGradient-3">
            <stop stop-color="#006DF0" offset="0%"></stop>
            <stop stop-color="#00E7F0" offset="100%"></stop>
        </linearGradient>
        <linearGradient x1="49.9999219%" y1="571.888889%" x2="49.9999219%" y2="-122.944444%" id="linearGradient-4">
            <stop stop-color="#006DF0" offset="0%"></stop>
            <stop stop-color="#00E7F0" offset="100%"></stop>
        </linearGradient>
        <linearGradient x1="49.9998438%" y1="949.4%" x2="49.9998438%" y2="-301.3%" id="linearGradient-5">
            <stop stop-color="#006DF0" offset="0%"></stop>
            <stop stop-color="#00E7F0" offset="100%"></stop>
        </linearGradient>
        <linearGradient x1="49.999975%" y1="155.705882%" x2="49.999975%" y2="-212.147059%" id="linearGradient-6">
            <stop stop-color="#006DF0" offset="0%"></stop>
            <stop stop-color="#00E7F0" offset="100%"></stop>
        </linearGradient>
    </defs>
    <g id="Page-1" stroke="none" stroke-width="1" fill="none" fill-rule="evenodd">
        <g id="system-(1)" fill-rule="nonzero">
            <path d="M83.5833333,73.6 L82.1666667,73.6 L82.1666667,29.425 C82.1666667,28.6380437 81.5323542,28 80.75,28 L4.25,28 C3.46764583,28 2.83333333,28.6380437 2.83333333,29.425 L2.83333333,73.6 L1.41666667,73.6 C0.6343125,73.6 0,74.2380438 0,75.025 L0,77.875 C0.00460416667,81.808 3.17333333,84.9953687 7.08333333,85 L77.9166667,85 C81.8266667,84.9953687 84.9953958,81.808 85,77.875 L85,75.025 C85,74.2380438 84.3656875,73.6 83.5833333,73.6 Z M5.66666667,30.85 L79.3333333,30.85 L79.3333333,73.6 L53.8333333,73.6 C53.4573854,73.6019594 53.0970208,73.752475 52.8303333,74.01895 L50.4135,76.45 L34.5865,76.45 L32.1696667,74.01895 C31.9028021,73.752475 31.5426146,73.6019594 31.1666667,73.6 L5.66666667,73.6 L5.66666667,30.85 Z M82.1666667,77.875 C82.1666667,80.2360469 80.2639062,82.15 77.9166667,82.15 L7.08333333,82.15 C4.73609375,82.15 2.83333333,80.2360469 2.83333333,77.875 L2.83333333,76.45 L30.5801667,76.45 L32.9984167,78.882475 C33.2640417,79.1496625 33.6242292,79.3 34,79.3 L51,79.3 C51.3757708,79.3 51.7359583,79.1496625 52.0015833,78.882475 L54.4198333,76.45 L82.1666667,76.45 L82.1666667,77.875 Z" id="Shape" fill="url(#linearGradient-1)"></path>
            <path d="M31.25076,62.0477327 L48.36886,46.2229117 L65.40886,56.2310263 L78,43.5307876 L78,33 L7,33 L7,66 L21.2355,54.8305489 L31.25076,62.0477327 Z M9.84,60.1431981 L9.84,35.8639618 L75.16,35.8639618 L75.16,42.3451074 L64.94878,52.6453461 L47.99114,42.6887828 L31.02924,58.3675418 L21.1645,51.2620525 L9.84,60.1431981 Z" id="Shape" fill="url(#linearGradient-2)"></path>
            <path d="M19.4117658,27 C20.1914129,27 20.8235305,26.3637237 20.8235305,25.5789474 L20.8235305,22.5194212 L25.7294127,21.6952108 C26.2930598,21.5998226 26.7439421,21.1717305 26.8715304,20.6109476 C27.2509421,18.9394346 27.9061774,17.3435925 28.8098833,15.890211 C29.114648,15.4015466 29.0955891,14.7761058 28.7618833,14.3071585 L25.872001,10.241527 L28.1745892,7.92379031 L32.2136479,10.8326849 C32.6795302,11.1685862 33.3008832,11.1877704 33.7863537,10.8810007 C35.2286478,9.97188232 36.8119419,9.3123363 38.4705889,8.92989553 C39.0277065,8.8014679 39.4530006,8.34761924 39.5477654,7.780264 L40.3722359,2.84210632 L43.6277653,2.84210632 L44.4465888,7.780264 C44.5413535,8.34761924 44.9666476,8.8014679 45.5237652,8.92989553 C47.1843534,9.31180341 48.7697651,9.97134943 50.2136474,10.8810007 C50.699118,11.1877704 51.3204709,11.1685862 51.7863533,10.8326849 L55.825412,7.92379031 L58.1280002,10.241527 L55.2381179,14.3071585 C54.904412,14.7761058 54.8853532,15.4015466 55.1901179,15.890211 C56.0932944,17.3419938 56.7485296,18.9357043 57.1284708,20.6052634 C57.256059,21.1660463 57.7069414,21.5941384 58.2705884,21.6895265 L63.1764707,22.513737 L63.1764707,25.5789474 C63.1764707,26.3637237 63.8085883,27 64.5882353,27 C65.3678824,27 66,26.3637237 66,25.5789474 L66,21.3157897 C65.9998235,20.6216055 65.5012941,20.0292043 64.8211765,19.9146319 L59.647059,19.0421056 C59.2692355,17.7072044 58.7415884,16.4199084 58.0743531,15.2052637 L61.1251766,10.9122639 C61.5266472,10.3466849 61.4627648,9.57167839 60.9741178,9.0805271 L56.9788238,5.05752728 C56.4905296,4.56602072 55.7205885,4.50242862 55.1590591,4.9068957 L50.894118,7.98205346 C49.6875886,7.30900744 48.4087063,6.77646799 47.0823534,6.39473774 L46.2169417,1.18231692 C46.101177,0.498790634 45.5122946,-0.000886975735 44.8235299,1.18212044e-06 L39.1764712,1.18212044e-06 C38.4868242,0.000178813692 37.8982948,0.501988002 37.7844713,1.18658008 L36.9176478,6.39473774 C35.5914713,6.77504694 34.312589,7.30616534 33.1058832,7.97779031 L28.8451774,4.91115886 C28.283648,4.50669177 27.5137068,4.57028388 27.0254127,5.06179043 L23.0287069,9.08479026 C22.5404128,9.57629682 22.4772364,10.3513034 22.8790599,10.916527 L25.9298833,15.2052637 C25.2612363,16.4197307 24.7321775,17.7070267 24.3529422,19.0421056 L19.1745894,19.9132108 C18.4955306,20.0297371 17.9991188,20.6224937 18.0000012,21.3157897 L18.0000012,25.5789474 C18.0000012,26.3637237 18.6321188,27 19.4117658,27 Z" id="Shape" fill="url(#linearGradient-3)"></path>
            <path d="M51.125,24.5555556 C51.125,25.35325 51.7686406,26 52.5625,26 C53.3563594,26 54,25.35325 54,24.5555556 C54,18.1736389 48.8512344,13 42.5,13 C36.1487656,13 31,18.1736389 31,24.5555556 C31,25.35325 31.6436406,26 32.4375,26 C33.2313594,26 33.875,25.35325 33.875,24.5555556 C33.875,19.7690278 37.7364844,15.8888889 42.5,15.8888889 C47.2635156,15.8888889 51.125,19.7690278 51.125,24.5555556 Z" id="Shape" fill="url(#linearGradient-4)"></path>
            <path d="M37,23.6 C37,24.37315 37.6156563,25 38.375,25 C39.1343437,25 39.75,24.37315 39.75,23.6 C39.75,22.053525 40.9811406,20.8 42.5,20.8 C44.0188594,20.8 45.25,22.053525 45.25,23.6 C45.25,24.37315 45.8656563,25 46.625,25 C47.3843437,25 48,24.37315 48,23.6 C48,20.507225 45.5375469,18 42.5,18 C39.4624531,18 37,20.507225 37,23.6 Z" id="Shape" fill="url(#linearGradient-5)"></path>
            <polygon id="Shape" fill="url(#linearGradient-6)" points="78 70.5882353 78 69.1764706 78 48 75.16 48 75.16 69.1764706 72.32 69.1764706 72.32 53.6470588 69.48 53.6470588 69.48 69.1764706 66.64 69.1764706 66.64 57.8823529 63.8 57.8823529 63.8 69.1764706 60.96 69.1764706 60.96 55.0588235 58.12 55.0588235 58.12 69.1764706 55.28 69.1764706 55.28 52.2352941 52.44 52.2352941 52.44 69.1764706 49.6 69.1764706 49.6 49.4117647 46.76 49.4117647 46.76 69.1764706 43.92 69.1764706 43.92 55.0588235 41.08 55.0588235 41.08 69.1764706 38.24 69.1764706 38.24 60.7058824 35.4 60.7058824 35.4 69.1764706 32.56 69.1764706 32.56 63.5294118 29.72 63.5294118 29.72 69.1764706 26.88 69.1764706 26.88 60.7058824 24.04 60.7058824 24.04 69.1764706 21.2 69.1764706 21.2 59.2941176 18.36 59.2941176 18.36 69.1764706 15.52 69.1764706 15.52 63.5294118 12.68 63.5294118 12.68 69.1764706 9.84 69.1764706 9.84 67.7647059 7 67.7647059 7 69.1764706 7 70.5882353 7 72 78 72"></polygon>
        </g>
    </g>
</svg>